<svg width="16" height="16" viewBox="0 0 16 16" fill="none" xmlns="http://www.w3.org/2000/svg">
<rect width="16" height="16" rx="2" fill="white"/>
<path d="M3.52946 5.89404C4.6284 6.50735 5.89671 6.64124 7.13101 6.59999C8.2126 6.60202 9.39956 6.43027 10.3705 7.03681C11.4381 7.69475 11.7508 9.17156 11.3374 10.311C10.9699 11.3043 9.91835 11.9426 8.89143 11.9358C6.92696 11.9433 4.96248 11.9358 3 11.9358C3.02267 11.1515 3.51879 10.411 4.31699 10.2866C5.28189 10.1399 7.48776 10.2616 9.06548 10.1331C9.99771 10.0188 10.0757 8.61911 9.18351 8.42504C7.9452 8.2161 6.67023 8.5143 5.43793 8.25734C4.36833 7.97875 3.65283 6.97798 3.52946 5.89404Z" fill="#4182C3"/>
<path d="M5.32322 3.1515C6.01939 2.9554 6.7509 3.00882 7.46708 3.00139C9.64427 3.01559 11.8215 2.9838 14 3.01897C13.8946 3.46661 13.852 3.98525 13.4779 4.29968C12.9924 4.73312 12.3116 4.77234 11.6981 4.78451C9.99769 4.78789 8.29728 4.78113 6.5982 4.78113C6.28679 4.80074 5.94937 4.77369 5.66597 4.92922C5.32122 5.19834 5.35456 5.6852 5.29655 6.0774C4.76709 5.6994 3.97089 5.47288 3.78418 4.7791C3.90421 3.99336 4.58838 3.36721 5.32322 3.1515Z" fill="#F88F21"/>
</svg>
